<svg width="282" height="124" viewBox="0 0 282 124" fill="none" xmlns="http://www.w3.org/2000/svg">
<mask id="mask0_2466_3337" style="mask-type:luminance" maskUnits="userSpaceOnUse" x="62" y="42" width="158" height="40">
<path d="M219.635 42H62.3651V82H219.635V42Z" fill="white"/>
</mask>
<g mask="url(#mask0_2466_3337)">
<mask id="mask1_2466_3337" style="mask-type:luminance" maskUnits="userSpaceOnUse" x="62" y="42" width="158" height="40">
<path d="M219.635 42H62.3651V82H219.635V42Z" fill="white"/>
</mask>
<g mask="url(#mask1_2466_3337)">
<path d="M67.083 53.1548V53.2057H62.3651V58.972H67.083V81.0907H73.6137V58.972H79.3364V53.2057H73.6137C73.6137 49.1504 74.1889 47.9636 79.3364 47.9636V42.0081H78.7612C70.2719 42.0081 67.083 45.1533 67.083 53.162" fill="#5F6577"/>
<path d="M90.4479 47.8118C90.4479 49.6611 88.9481 51.1536 87.106 51.1536C85.264 51.1536 83.7642 49.6538 83.7642 47.8118C83.7642 45.9698 85.264 44.47 87.106 44.47C88.9481 44.47 90.4479 45.9698 90.4479 47.8118Z" fill="#5F6577"/>
<path d="M90.4479 53.2034H83.9608V81.0956H90.4479V53.2034Z" fill="#5F6577"/>
<path d="M109.66 52.6296C106.034 52.6296 103.18 54.2023 101.316 56.634V53.2048H94.9312V81.0971H101.367V65.7931C101.367 60.8786 104.229 58.2139 107.898 58.2139C112.092 58.2139 114.189 60.8859 114.189 65.2252V81.0971H120.719V64.5554C120.719 56.9762 116.664 52.6369 109.66 52.6369" fill="#5F6577"/>
<path d="M213.187 53.2048V56.5394C211.134 54.1076 207.894 52.6296 204.225 52.6296C197.17 52.6296 190.399 57.9227 190.399 67.1691C190.399 76.4156 197.41 81.665 204.13 81.665C207.799 81.665 211.141 80.0923 213.187 77.4713V81.0971H219.623V53.2048H213.187ZM205.178 75.7531C200.41 75.7531 196.74 71.938 196.74 67.0745C196.74 62.211 200.41 58.4906 205.178 58.4906C209.947 58.4906 213.522 62.3056 213.522 67.0745C213.522 71.8433 209.991 75.7531 205.178 75.7531Z" fill="#5F6577"/>
<path d="M188.993 58.8561V53.2063H183.321V47.8186H176.834V53.2063H168.257C168.257 53.2063 171.126 55.1211 172.764 58.8561H176.834V69.464C176.834 78.3319 179.455 81.0985 188.082 81.0985H188.985V75.041C184.027 75.041 183.314 74.2765 183.314 69.4131V58.8561H188.985H188.993Z" fill="#5F6577"/>
<path d="M140.421 60.2036C141.309 58.1795 142.583 56.3594 144.141 54.8377C141.709 52.9666 138.804 53.1632 138.804 53.1632C136.074 53.3306 132.936 54.5902 131.655 57.3568V53.2068H125.262V81.0991H131.698V66.2247C131.698 61.6815 134.887 58.2305 139.227 59.5119C139.678 59.6429 140.093 59.8832 140.421 60.2108" fill="#5F6577"/>
</g>
<mask id="mask2_2466_3337" style="mask-type:luminance" maskUnits="userSpaceOnUse" x="142" y="52" width="30" height="31">
<path d="M148.963 70.6084C147.216 66.1817 149.386 61.1799 153.812 59.4398C158.239 57.6925 163.241 59.8621 164.981 64.2887C166.728 68.7154 164.559 73.7172 160.132 75.4573C159.091 75.865 158.028 76.0616 156.972 76.0616C153.543 76.0616 150.296 73.9939 148.956 70.6084M151.621 53.9065C144.144 56.8552 140.474 65.308 143.423 72.7853C146.371 80.2625 154.824 83.932 162.302 80.9833C169.779 78.0347 173.448 69.5818 170.5 62.1045C168.243 56.3819 162.76 52.8872 156.958 52.8872C155.181 52.8872 153.375 53.2148 151.621 53.9065Z" fill="white"/>
</mask>
<g mask="url(#mask2_2466_3337)">
<path d="M148.186 38.9221L127.348 76.6687L165.758 97.8719L186.595 60.1253L148.186 38.9221Z" fill="#70778A"/>
</g>
<mask id="mask3_2466_3337" style="mask-type:luminance" maskUnits="userSpaceOnUse" x="62" y="42" width="158" height="40">
<path d="M219.635 42H62.3651V82H219.635V42Z" fill="white"/>
</mask>
<g mask="url(#mask3_2466_3337)">
<path d="M148.886 55.3239C148.886 55.3239 158.213 50.8026 163.659 60.9664C164.314 62.1895 165.319 64.4757 165.406 66.2376L162.086 66.3614L169.709 74.4356L175.024 64.9416L172.046 65.444C172.046 65.444 171.304 55.6005 159.48 53.0232C159.48 53.0232 154.209 51.7782 148.872 55.3239" fill="#5F6577"/>
</g>
</g>
</svg>
