<svg width="282" height="124" viewBox="0 0 282 124" fill="none" xmlns="http://www.w3.org/2000/svg">
<path d="M206.663 62.0501C206.454 57.6223 203.331 55.4033 200.024 54.3268C198.368 53.7886 196.598 53.687 194.897 54.0425C193.096 54.4132 191.416 55.2916 190.044 56.5864C189.405 57.1856 189.311 57.1399 188.642 56.5458C185.375 53.6515 181.635 53.0218 177.824 54.7178C177.41 54.9006 177.021 55.1088 176.647 55.3272C176.582 54.794 176.138 54.3827 175.599 54.3827H173.165C172.582 54.3827 172.103 54.8701 172.103 55.4642V76.9178C172.103 77.5119 172.582 77.9994 173.165 77.9994H175.599C176.183 77.9994 176.662 77.5119 176.662 76.9178V61.7556C176.986 60.3846 177.749 59.3335 178.981 58.5769C180.697 57.5258 182.717 57.4598 184.383 58.3992C185.869 59.237 186.852 60.735 187.126 62.502V76.3288C187.126 76.9229 187.605 77.4104 188.188 77.4104H190.622C191.206 77.4104 191.685 76.9229 191.685 76.3288V62.172C191.969 60.5471 192.782 59.364 194.194 58.516C195.835 57.5309 197.989 57.5309 199.685 58.516C200.887 59.2167 201.7 60.3135 202.074 61.6794C202.159 61.9841 202.184 62.304 202.184 62.6239V76.8061C202.184 77.3901 202.653 77.8725 203.232 77.8725H205.626C206.199 77.8725 206.673 77.3951 206.673 76.8061V68.1891C206.673 68.1891 206.673 64.5078 206.673 63.2942C206.673 63.2942 206.698 62.5477 206.673 62.0501H206.663Z" fill="#5F6577"/>
<path d="M158.073 46.0099H155.639C155.055 46.0099 154.577 46.4974 154.577 47.0915V56.4244C154.477 56.4904 154.342 56.5006 154.232 56.4244C148.556 52.2505 142.312 53.7383 138.71 57.0947C134.291 61.2178 133.543 67.758 136.94 72.6428C139.085 75.725 142.052 77.4769 145.768 77.8425C146.187 77.8831 146.596 77.9034 147 77.9034C149.684 77.9034 152.133 76.9945 154.427 75.1513C154.472 75.1157 154.522 75.1056 154.572 75.1106V76.8269C154.572 77.421 155.05 77.9085 155.634 77.9085H158.068C158.652 77.9085 159.13 77.421 159.13 76.8269V47.0915C159.13 46.4974 158.652 46.0099 158.068 46.0099H158.073ZM146.99 73.963C144.94 73.963 143.01 73.1404 141.558 71.6476C140.047 70.0938 139.224 68.0119 139.239 65.7777C139.254 63.6196 140.112 61.5834 141.643 60.05C143.11 58.5825 145.01 57.7751 146.995 57.7751C147.02 57.7751 147.04 57.7751 147.065 57.7751C149.105 57.7954 151.035 58.6586 152.497 60.2023C153.564 61.3296 154.272 62.7158 154.582 64.2087V67.6006C153.823 71.2312 150.706 73.958 146.99 73.958V73.963Z" fill="#5F6577"/>
<path d="M130.062 70.0434C128.411 70.0738 127.383 70.3531 126.351 71.6073C124.585 73.7502 122.141 74.5372 119.283 73.8873C116.435 73.2424 114.48 71.3738 113.477 68.3372C113.283 67.7482 113.343 67.5959 113.368 67.5604C113.393 67.5248 113.532 67.3979 114.235 67.4131C117.263 67.4588 120.336 67.4537 123.308 67.4537C125.892 67.4537 128.56 67.4537 131.189 67.4791C131.713 67.4842 132.296 67.4385 132.665 67.0373C133.029 66.6464 133.039 66.0472 132.999 65.5191C132.74 61.8936 131.099 58.7098 128.376 56.5568C125.638 54.3886 122.171 53.5559 118.615 54.2058C115.916 54.6984 113.432 56.1354 111.627 58.2579C109.821 60.3804 108.804 63.0462 108.769 65.7679C108.734 68.5302 109.652 71.2468 111.363 73.415C113.073 75.5832 115.487 77.1015 118.171 77.6956C119.079 77.8987 119.986 77.9952 120.879 77.9952C125.653 77.9952 129.987 75.2024 131.967 70.6121L132.082 70.343C132.142 70.2008 132.042 70.0485 131.892 70.0485H130.062V70.0434ZM127.752 63.5337C126.855 63.5337 125.957 63.5337 125.059 63.5337C121.368 63.5337 117.547 63.5337 113.797 63.5438C113.657 63.5438 113.557 63.4118 113.592 63.2747C113.592 63.2595 113.602 63.2442 113.607 63.229C114.031 61.7361 115.058 60.355 116.51 59.3394C117.966 58.3188 119.652 57.811 121.248 57.9075C124.401 58.0954 127.174 60.2839 128.047 63.1478C128.106 63.3407 127.952 63.5388 127.757 63.5388L127.752 63.5337Z" fill="#5F6577"/>
<path d="M165.744 46.376C164.208 46.376 162.936 47.6302 162.916 49.1637C162.906 49.9101 163.215 50.6515 163.769 51.2049C164.312 51.7483 165.031 52.0529 165.754 52.0529C165.754 52.0529 165.764 52.0529 165.769 52.0529C166.986 52.0479 168.113 51.2405 168.442 50.0472C168.986 48.0821 167.594 46.3709 165.749 46.3709L165.744 46.376Z" fill="#5F6577"/>
<path d="M166.951 54.3833H164.517C163.933 54.3833 163.454 54.8707 163.454 55.4648V76.9184C163.454 77.5125 163.933 78 164.517 78H166.951C167.534 78 168.013 77.5125 168.013 76.9184V55.4648C168.013 54.8707 167.534 54.3833 166.951 54.3833Z" fill="#5F6577"/>
<path d="M94.0499 76.0553C93.985 75.9995 92.5585 74.7402 91.93 74.0953C89.486 71.5767 87.1518 69.114 84.7377 66.6208C84.3287 66.2146 83.7701 65.5748 83.7701 65.3463C83.7701 65.1178 83.9646 64.8385 84.4384 64.3765C86.4734 62.4012 88.4735 60.3244 90.4038 58.3136C90.9125 57.7855 91.4213 57.2523 91.935 56.7243C91.97 56.6887 92.0198 56.6481 92.0747 56.6024C92.3041 56.4196 92.7281 56.0845 92.5685 55.4193C92.5236 55.2365 92.364 55.1095 92.1844 55.1095C91.9051 55.1095 91.5061 55.0994 91.2318 55.0943C90.5584 55.0892 90.1993 55.0791 89.5808 55.0943C88.2541 55.1248 87.2615 55.3583 86.224 56.5059C84.588 58.3136 82.8523 60.0908 81.1714 61.8071C80.7475 62.2387 80.3285 62.6703 79.9045 63.1019C79.8946 63.1121 79.8846 63.1273 79.8746 63.1375V47.0866C79.8746 46.4875 79.3958 46 78.8122 46H76.3782C75.7946 46 75.3158 46.4875 75.3158 47.0866V76.9033C75.3158 77.5025 75.7946 77.99 76.3782 77.99H78.8122C79.3958 77.99 79.8746 77.5025 79.8746 76.9033V67.6719C79.9295 67.6719 79.9794 67.6821 80.0242 67.7329C80.0891 67.7989 80.1489 67.8649 80.2088 67.9309L81.4707 69.2663C83.4658 71.4346 85.2464 73.2067 87.1867 75.4866C88.4187 76.9338 89.506 77.9138 91.0821 77.9493C91.8153 77.9646 92.2393 77.9493 93.0423 77.9493C93.3665 77.9493 93.8404 77.9341 94.1745 77.9341C94.389 77.9341 94.5786 77.7716 94.6334 77.5482C94.823 76.7104 94.3142 76.2889 94.0449 76.0553H94.0499Z" fill="#5F6577"/>
<path d="M107.94 54.0986C107.621 53.8193 107.172 53.8244 106.818 53.8549C101.681 54.3474 97.7403 57.1706 97.5558 62.2992C97.5408 62.3754 97.5308 62.4515 97.5308 62.5328V76.9181C97.5308 77.5122 98.0097 77.9997 98.5932 77.9997H101.027C101.611 77.9997 102.09 77.5122 102.09 76.9181V63.4163C102.155 60.6845 103.8 58.501 106.359 58.0593C108.309 57.7241 108.414 56.6172 108.349 55.3173C108.324 54.8399 108.274 54.388 107.945 54.0986H107.94Z" fill="#5F6577"/>
</svg>
