<svg width="282" height="124" viewBox="0 0 282 124" fill="none" xmlns="http://www.w3.org/2000/svg">
<path fill-rule="evenodd" clip-rule="evenodd" d="M199.563 60.5283L190.482 50.2361H188.293V74H194.356V63.4366L199.263 68.7208H199.927L204.868 63.4366V74H210.931V50.2361H208.812L199.568 60.5283H199.563ZM142.802 65.6065C148.663 61.5429 147.006 50.3416 137.9 50.3064H127.727V74H130.554L133.657 67.028H136.739L140.712 74H147.34V73.121L142.802 65.6065ZM137.9 61.6434H133.657V55.7212C135.048 55.7212 136.508 55.6861 137.9 55.7212C141.278 55.7564 141.111 61.6434 137.9 61.6434ZM113.173 74H118.97V73.121L108.497 50H105.95L95.511 73.121V74H101.313L102.67 71.0213H111.816L113.173 74ZM109.893 65.8426H104.588L107.208 59.6141L109.893 65.8426ZM73.8962 74L76.9988 67.9422H81.2765C92.3789 67.9422 92.3789 50.3365 81.2765 50.3064H71.069V74H73.9011H73.8962ZM81.2372 62.4922H76.9939V55.7212C78.3509 55.7212 79.8457 55.6861 81.2372 55.7212C84.684 55.7564 84.4873 62.4922 81.2372 62.4922ZM173.739 74H179.541V73.121L169.068 50H166.516L156.078 73.121V74H161.875L163.232 71.0213H172.377L173.734 74H173.739ZM170.46 65.8426H165.159L167.775 59.6141L170.46 65.8426Z" fill="#5F6577"/>
</svg>
