<svg width="282" height="124" viewBox="0 0 282 124" fill="none" xmlns="http://www.w3.org/2000/svg">
<path d="M132.785 64.59V58.5467H135.8V55.4633H132.785V51.7017H128.969V55.4633H126.877V58.5467H128.969V65.0833C128.969 68.1667 130.754 69.5233 133.523 69.5233C134.569 69.5233 135.492 69.3383 135.985 69.0917V65.7C135.554 66.0083 134.877 66.1933 134.323 66.1933C133.4 66.1317 132.785 65.6383 132.785 64.59Z" fill="#5F6577"/>
<path d="M141.031 55.4633H137.215L141.4 69.215H144.908L147.185 60.7667L149.462 69.215H152.969L157.154 55.4633H153.462L151 64.22L148.662 55.4633H145.769L143.492 64.22L141.031 55.4633Z" fill="#5F6577"/>
<path d="M159.185 55.4633H163V69.2767H159.185V55.4633Z" fill="#5F6577"/>
<path d="M173.523 61.075L170.692 60.3967C169.831 60.15 169.462 59.8417 169.462 59.2867C169.462 58.4233 170.385 57.9917 171.308 57.9917C172.6 57.9917 173.215 58.6083 173.462 59.3483H177.092C176.6 56.7583 174.692 55.0933 171.246 55.0933C168.169 55.0933 165.769 56.8817 165.769 59.595C165.769 61.9383 167.246 62.9867 169.338 63.48L172.108 64.0967C173.092 64.3433 173.523 64.6517 173.523 65.2683C173.523 66.1933 172.723 66.625 171.554 66.625C170.385 66.625 169.523 66.07 169.215 65.0833H165.4C165.831 67.92 168.169 69.5233 171.554 69.5233C174.754 69.5233 177.215 67.8583 177.215 65.0217C177.215 62.9867 175.923 61.63 173.523 61.075Z" fill="#5F6577"/>
<path d="M184.415 64.59V58.5467H187.431V55.4633H184.415V51.7017H180.6V55.4633H178.508V58.5467H180.6V65.0833C180.6 68.1667 182.385 69.5233 185.154 69.5233C186.2 69.5233 187.123 69.3383 187.615 69.0917V65.7C187.185 66.0083 186.508 66.1933 185.954 66.1933C184.969 66.1317 184.415 65.6383 184.415 64.59Z" fill="#5F6577"/>
<path d="M195.8 55.155C191.8 55.155 188.6 58.3617 188.6 62.37C188.6 66.3783 191.8 69.585 195.8 69.585C199.8 69.585 203 66.3783 203 62.37C203 58.3617 199.8 55.155 195.8 55.155ZM195.8 65.8233C193.892 65.8233 192.292 64.22 192.292 62.3083C192.292 60.3967 193.892 58.7933 195.8 58.7933C197.708 58.7933 199.308 60.3967 199.308 62.3083C199.308 64.22 197.708 65.8233 195.8 65.8233Z" fill="#5F6577"/>
<path d="M161.092 53.6133C162.146 53.6133 163 52.7575 163 51.7017C163 50.6459 162.146 49.79 161.092 49.79C160.039 49.79 159.185 50.6459 159.185 51.7017C159.185 52.7575 160.039 53.6133 161.092 53.6133Z" fill="#5F6577"/>
<path d="M91.3077 55.8333V80.5H103.615V43.5H79V55.8333H91.3077Z" fill="#5F6577"/>
<path d="M103.615 43.5C103.615 50.345 109.154 55.8333 115.923 55.8333V43.5L103.615 43.5Z" fill="#5F6577"/>
<path d="M103.615 43.5C103.615 50.345 109.154 55.8333 115.923 55.8333V43.5L103.615 43.5Z" fill="#5F6577"/>
</svg>
